<svg height="72" viewBox="0 0 156 72" width="156" xmlns="http://www.w3.org/2000/svg"><g fill="currentColor" fill-rule="evenodd"><path d="m43.9804 62.836v-53.672c11.554 3.452 20 14.176 20 26.836s-8.446 23.386-20 26.836m-8-62.836v30.342l-4.57-4.57-.584-11.406 4.766-14.346c-3.056.032-6.008.468-8.834 1.218l-2.306 6.934-6.536-3.278c-2.586 1.506-4.978 3.308-7.104 5.39l12.106 6.066.354 6.942-6.94-.356-6.068-12.104c-2.08 2.126-3.884 4.516-5.39 7.104l3.28 6.538-6.938 2.304c-.748 2.826-1.184 5.778-1.216 8.834l14.348-4.766 11.406.582 4.57 4.572-4.57 4.572-11.406.582-14.348-4.766c.032 3.056.468 6.008 1.216 8.834l6.938 2.304-3.28 6.538c1.506 2.588 3.31 4.978 5.39 7.104l6.068-12.104 6.94-.356-.354 6.94-12.106 6.068c2.126 2.08 4.518 3.882 7.104 5.39l6.536-3.278 2.306 6.934c2.826.748 5.778 1.186 8.834 1.218l-4.766-14.346.584-11.406 4.57-4.57v30.342c19.882 0 36-16.118 36-36s-16.118-36-36-36"></path><path d="m148 66h8v-60h-8z"></path><path d="m114 66.0002h8v-26h14v-8h-14v-18h18v-8h-26z"></path><path d="m80 66.0002h26v-8.0002h-18v-17.9998h14v-8h-14v-18h18v-8h-26z"></path></g></svg>
