<svg xmlns="http://www.w3.org/2000/svg" id="a" width="188" height="40" viewBox="0 0 187.09 39.69"><defs><style>.b{fill:#ff00af}</style></defs><g><path d="M59.93,17.63c-.58-.75-1.26-1.36-2.06-1.8-1.16-.64-2.46-.97-3.89-.97-1.65,0-3.13,.37-4.42,1.09-1.3,.73-2.32,1.74-3.07,3.04-.75,1.3-1.13,2.81-1.13,4.55s.38,3.26,1.13,4.57c.75,1.31,1.77,2.33,3.07,3.06,1.3,.73,2.77,1.09,4.42,1.09,1.48,0,2.8-.33,3.96-.98,.83-.47,1.54-1.11,2.12-1.91v2.7h2.96V8.2h-3.09v9.42Zm-.72,9.09c-.5,.91-1.19,1.61-2.06,2.11-.87,.49-1.84,.74-2.91,.74s-2.07-.25-2.93-.74c-.86-.49-1.54-1.2-2.06-2.11-.51-.91-.77-1.97-.77-3.17s.26-2.28,.77-3.17c.51-.89,1.2-1.58,2.06-2.07,.86-.49,1.83-.74,2.93-.74s2.04,.25,2.91,.74c.87,.49,1.55,1.19,2.06,2.07,.5,.89,.76,1.95,.76,3.17s-.25,2.26-.76,3.17Z"/><path d="M79.31,15.96c-1.27-.73-2.72-1.09-4.38-1.09s-3.09,.37-4.39,1.11c-1.3,.74-2.32,1.76-3.06,3.07-.74,1.31-1.11,2.81-1.11,4.5s.38,3.2,1.14,4.5c.76,1.31,1.83,2.34,3.22,3.09,1.38,.75,2.99,1.13,4.81,1.13,1.42,0,2.7-.24,3.84-.71,1.15-.47,2.11-1.16,2.88-2.06l-1.71-1.99c-.62,.69-1.35,1.2-2.17,1.54-.83,.34-1.74,.51-2.75,.51-1.22,0-2.31-.25-3.25-.74-.94-.49-1.68-1.18-2.2-2.07-.39-.66-.63-1.38-.73-2.17h13.84c.02-.15,.04-.31,.05-.48,.01-.17,.02-.32,.02-.45,0-1.76-.36-3.3-1.08-4.62-.72-1.32-1.71-2.34-2.98-3.07Zm-7.24,2.24c.84-.48,1.79-.72,2.86-.72s2.05,.24,2.88,.72c.83,.48,1.47,1.15,1.95,2.01,.36,.65,.57,1.37,.65,2.16h-10.96c.09-.78,.31-1.49,.66-2.14,.47-.87,1.13-1.54,1.96-2.03Z"/><rect width="3.09" height="17.05" x="98.01" y="15.02"/><path d="M92.73,8.01c-1.8,0-3.19,.5-4.17,1.5-.98,1-1.46,2.33-1.46,4.01v1.51h-2.9v2.54h2.9v14.51h3.09v-14.51h4.89v-2.54h-4.95v-1.48c0-.99,.24-1.73,.71-2.24,.47-.5,1.16-.76,2.06-.76,.45,0,.88,.07,1.29,.21,.41,.14,.77,.34,1.09,.6l.93-2.35c-.43-.34-.95-.6-1.56-.76-.61-.16-1.25-.24-1.91-.24Z"/><path d="M110.47,18.31c.88-.49,1.88-.74,2.99-.74,.92,0,1.79,.2,2.59,.6,.8,.4,1.48,1.01,2.04,1.85l2.35-1.51c-.67-1.2-1.6-2.11-2.81-2.72-1.21-.61-2.59-.92-4.13-.92-1.74,0-3.29,.37-4.65,1.11-1.36,.74-2.43,1.76-3.2,3.07-.77,1.31-1.16,2.81-1.16,4.5s.39,3.2,1.16,4.5c.77,1.31,1.84,2.34,3.2,3.09,1.36,.75,2.91,1.13,4.65,1.13,1.54,0,2.92-.32,4.13-.95,1.21-.63,2.15-1.54,2.81-2.72l-2.35-1.48c-.56,.84-1.24,1.45-2.04,1.85-.8,.4-1.67,.6-2.59,.6-1.12,0-2.11-.25-2.99-.74-.88-.49-1.58-1.19-2.09-2.09-.51-.9-.77-1.96-.77-3.18s.26-2.28,.77-3.17c.51-.89,1.21-1.58,2.09-2.07Z"/><path d="M135.86,15.67c-1.06-.54-2.29-.8-3.68-.8-1.54,0-2.9,.31-4.05,.93-.8,.43-1.45,.99-1.96,1.65V8.2h-3.09v23.87h3.09v-8.78c0-1.24,.22-2.28,.66-3.12,.44-.84,1.07-1.47,1.88-1.9,.82-.43,1.77-.64,2.86-.64,1.46,0,2.59,.42,3.39,1.25,.8,.84,1.21,2.08,1.21,3.73v9.46h3.09v-9.81c0-1.67-.3-3.06-.9-4.15-.6-1.09-1.43-1.91-2.49-2.44Z"/><path d="M149.82,14.86c-1.35,0-2.64,.19-3.88,.56-1.23,.38-2.29,.92-3.17,1.62l1.29,2.32c.66-.56,1.48-1,2.45-1.34,.96-.33,1.95-.5,2.96-.5,1.52,0,2.66,.36,3.43,1.08,.76,.72,1.14,1.73,1.14,3.04v.61h-4.89c-1.69,0-3.04,.23-4.04,.68s-1.72,1.05-2.16,1.8c-.44,.75-.66,1.59-.66,2.51s.26,1.83,.77,2.59c.51,.76,1.25,1.36,2.2,1.79,.95,.43,2.06,.64,3.33,.64,1.57,0,2.86-.29,3.89-.88,.73-.42,1.29-.94,1.71-1.57v2.26h2.93v-10.29c0-2.34-.63-4.07-1.9-5.21-1.27-1.14-3.07-1.71-5.4-1.71Zm2.33,14.25c-.87,.51-1.88,.77-3.04,.77s-2.1-.25-2.77-.76c-.67-.5-1-1.17-1-2.01,0-.73,.27-1.35,.8-1.87,.54-.51,1.58-.77,3.12-.77h4.76v2.38c-.39,.99-1.01,1.74-1.88,2.25Z"/><rect width="3.09" height="17.05" x="161.36" y="15.02"/><path d="M184.11,18.11c-.6-1.09-1.43-1.91-2.49-2.44-1.06-.54-2.29-.8-3.68-.8-1.54,0-2.9,.31-4.05,.93-.86,.46-1.56,1.07-2.09,1.81v-2.58h-2.96v17.05h3.09v-8.78c0-1.24,.22-2.28,.66-3.12,.44-.84,1.07-1.47,1.88-1.9,.82-.43,1.77-.64,2.86-.64,1.46,0,2.59,.42,3.39,1.25,.8,.84,1.21,2.08,1.21,3.73v9.46h3.09v-9.81c0-1.67-.3-3.06-.9-4.15Z"/></g><path d="M23.9,33.16V6.53c5.73,1.71,9.92,7.03,9.92,13.32s-4.19,11.61-9.92,13.32ZM19.93,1.98v15.06l-2.27-2.27-.29-5.66,2.37-7.12c-1.52,.02-2.98,.23-4.38,.6l-1.14,3.44-3.24-1.63c-1.28,.75-2.47,1.64-3.53,2.67l6.01,3.01,.18,3.44-3.44-.18-3.01-6.01c-1.03,1.06-1.93,2.24-2.67,3.53l1.63,3.24-3.44,1.14c-.37,1.4-.59,2.87-.6,4.38l7.12-2.37,5.66,.29,2.27,2.27-2.27,2.27-5.66,.29-7.12-2.37c.02,1.52,.23,2.98,.6,4.38l3.44,1.14-1.63,3.24c.75,1.28,1.64,2.47,2.67,3.53l3.01-6.01,3.44-.18-.18,3.44-6.01,3.01c1.06,1.03,2.24,1.93,3.53,2.67l3.24-1.63,1.14,3.44c1.4,.37,2.87,.59,4.38,.6l-2.37-7.12,.29-5.66,2.27-2.27v15.06c9.87,0,17.86-8,17.86-17.86S29.79,1.98,19.93,1.98Z" class="b"/></svg>